<svg width="36" height="36" viewBox="0 0 36 36" fill="none" xmlns="http://www.w3.org/2000/svg">
<rect width="36" height="36" rx="18" fill="#0401FF"/>
<path fill-rule="evenodd" clip-rule="evenodd" d="M17.9967 5.76184C10.7996 5.76184 4.96338 11.5968 4.96338 18.7951C4.96338 24.5536 8.69786 29.439 13.8764 31.1624C14.5277 31.283 14.7669 30.8796 14.7669 30.5354C14.7669 30.2248 14.7549 29.1979 14.7493 28.1088C11.1234 28.8973 10.3583 26.5711 10.3583 26.5711C9.76533 25.0647 8.91119 24.664 8.91119 24.664C7.72856 23.8551 9.00033 23.8718 9.00033 23.8718C10.309 23.9637 10.9982 25.2151 10.9982 25.2151C12.1606 27.2074 14.0471 26.6314 14.791 26.2983C14.908 25.4561 15.2456 24.8809 15.6185 24.5555C12.7236 24.226 9.68027 23.1084 9.68027 18.1144C9.68027 16.6915 10.1895 15.5288 11.0233 14.6161C10.888 14.2877 10.4418 12.9622 11.1496 11.1668C11.1496 11.1668 12.2441 10.8167 14.7345 12.503C15.7742 12.2141 16.8892 12.0693 17.9968 12.0643C19.1043 12.0693 20.2202 12.2141 21.2617 12.503C23.7494 10.8167 24.8424 11.1668 24.8424 11.1668C25.5518 12.9622 25.1056 14.2877 24.9703 14.6161C25.806 15.5288 26.3116 16.6915 26.3116 18.1144C26.3116 23.1204 23.2626 24.2224 20.3603 24.5452C20.8277 24.9497 21.2442 25.7428 21.2442 26.9587C21.2442 28.7026 21.2293 30.1061 21.2293 30.5354C21.2293 30.8823 21.4638 31.2888 22.1244 31.1608C27.3003 29.4355 31.03 24.5517 31.03 18.7951C31.03 11.5968 25.1947 5.76184 17.9967 5.76184Z" fill="white"/>
<path d="M9.89985 24.4747C9.87117 24.5396 9.76918 24.559 9.67642 24.5145C9.5818 24.472 9.5289 24.3837 9.55944 24.3187C9.58748 24.2521 9.68945 24.2335 9.78391 24.2781C9.87857 24.3206 9.93256 24.4098 9.89985 24.4747Z" fill="black"/>
<path d="M10.4277 25.0637C10.3656 25.1211 10.2439 25.0944 10.1615 25.0034C10.0761 24.9125 10.0603 24.7909 10.1234 24.7326C10.1875 24.675 10.3054 24.7019 10.3907 24.7928C10.4761 24.8847 10.4927 25.0053 10.4277 25.0637Z" fill="black"/>
<path d="M10.9416 25.8143C10.8617 25.8699 10.731 25.8177 10.6503 25.7019C10.5704 25.5859 10.5704 25.4469 10.6521 25.3912C10.7329 25.3355 10.8617 25.3856 10.9435 25.5006C11.0232 25.6185 11.0231 25.7576 10.9416 25.8143Z" fill="black"/>
<path d="M11.6457 26.5395C11.5742 26.6182 11.422 26.5969 11.3108 26.4895C11.1967 26.3845 11.1651 26.2353 11.2365 26.1565C11.3091 26.0776 11.4621 26.0997 11.5742 26.2064C11.6874 26.3113 11.7217 26.4614 11.6457 26.5395Z" fill="black"/>
<path d="M12.6169 26.9605C12.5853 27.0625 12.4389 27.1089 12.2913 27.0655C12.1438 27.0207 12.0475 26.9012 12.0772 26.7982C12.1077 26.6953 12.255 26.6471 12.4036 26.6935C12.5509 26.7379 12.6474 26.8566 12.6169 26.9605Z" fill="black"/>
<path d="M13.6835 27.0386C13.6871 27.146 13.5619 27.2352 13.407 27.2371C13.2512 27.2407 13.1249 27.1537 13.1233 27.0479C13.1233 26.9393 13.2457 26.8512 13.4015 26.8485C13.5564 26.8455 13.6835 26.9319 13.6835 27.0386Z" fill="black"/>
<path d="M14.6762 26.8697C14.6947 26.9745 14.5869 27.0822 14.433 27.1109C14.2817 27.1387 14.1418 27.0738 14.1224 26.9699C14.1037 26.8624 14.2132 26.7547 14.3644 26.7269C14.5185 26.7001 14.6565 26.7631 14.6762 26.8697Z" fill="black"/>
</svg>
