<svg width="36" height="36" viewBox="0 0 36 36" fill="none" xmlns="http://www.w3.org/2000/svg">
<rect width="36" height="36" rx="18" fill="#0401FF"/>
<path d="M13.3316 6.80005C9.72983 6.80005 6.80005 9.73254 6.80005 13.3352V22.6685C6.80005 26.2703 9.73254 29.2 13.3352 29.2H22.6685C26.2703 29.2 29.2 26.2676 29.2 22.6649V13.3316C29.2 9.72983 26.2676 6.80005 22.6649 6.80005H13.3316ZM24.5334 10.5334C25.0486 10.5334 25.4667 10.9515 25.4667 11.4667C25.4667 11.9819 25.0486 12.4 24.5334 12.4C24.0182 12.4 23.6 11.9819 23.6 11.4667C23.6 10.9515 24.0182 10.5334 24.5334 10.5334ZM18 12.4C21.0884 12.4 23.6 14.9116 23.6 18C23.6 21.0884 21.0884 23.6 18 23.6C14.9116 23.6 12.4 21.0884 12.4 18C12.4 14.9116 14.9116 12.4 18 12.4ZM18 14.2667C17.0099 14.2667 16.0603 14.66 15.3602 15.3602C14.66 16.0603 14.2667 17.0099 14.2667 18C14.2667 18.9902 14.66 19.9398 15.3602 20.6399C16.0603 21.34 17.0099 21.7334 18 21.7334C18.9902 21.7334 19.9398 21.34 20.6399 20.6399C21.34 19.9398 21.7334 18.9902 21.7334 18C21.7334 17.0099 21.34 16.0603 20.6399 15.3602C19.9398 14.66 18.9902 14.2667 18 14.2667Z" fill="white"/>
</svg>
